<svg xmlns="http://www.w3.org/2000/svg" viewBox="0 0 1200 700" role="img" aria-labelledby="title desc">
  <title id="title">DeepMSMT-CSD reconstruction</title><desc id="desc">Single-shell diffusion data enters a deep neural network to recover multi-tissue fiber orientations.</desc>
  <rect width="1200" height="700" rx="34" fill="#eaf1f4"/>
  <g transform="translate(110 170)"><circle cx="150" cy="180" r="135" fill="#283f62"/><circle cx="150" cy="180" r="99" fill="none" stroke="#d3a52c" stroke-width="13"/><circle cx="150" cy="180" r="59" fill="none" stroke="#62a8b0" stroke-width="13"/><g stroke="#f8f4e9" stroke-width="9" stroke-linecap="round"><path d="M150 48v53M49 180h53M251 180h-53M74 104l38 38M226 104l-38 38M74 256l38-38M226 256l-38-38"/></g><text x="150" y="350" text-anchor="middle" font-family="Arial, sans-serif" font-size="28" font-weight="700" fill="#283f62">single shell</text></g>
  <path d="M373 350h95" stroke="#283f62" stroke-width="10" stroke-linecap="round"/><path d="M448 326l32 24-32 24" fill="none" stroke="#283f62" stroke-width="10" stroke-linecap="round" stroke-linejoin="round"/>
  <g transform="translate(502 185)"><rect width="290" height="330" rx="28" fill="#55318d"/><g fill="#f7f0df"><rect x="38" y="54" width="55" height="55" rx="8"/><rect x="118" y="54" width="55" height="55" rx="8"/><rect x="198" y="54" width="55" height="55" rx="8"/><rect x="38" y="137" width="55" height="55" rx="8"/><rect x="118" y="137" width="55" height="55" rx="8"/><rect x="198" y="137" width="55" height="55" rx="8"/><rect x="78" y="220" width="55" height="55" rx="8"/><rect x="158" y="220" width="55" height="55" rx="8"/></g><g stroke="#d3a52c" stroke-width="7"><path d="M93 81h25M173 81h25M93 164h25M173 164h25M105 192l40 28M185 192l-40 28"/></g><text x="145" y="307" text-anchor="middle" font-family="Arial, sans-serif" font-size="26" fill="#f7f0df">learned reconstruction</text></g>
  <path d="M817 350h95" stroke="#283f62" stroke-width="10" stroke-linecap="round"/><path d="M892 326l32 24-32 24" fill="none" stroke="#283f62" stroke-width="10" stroke-linecap="round" stroke-linejoin="round"/>
  <g transform="translate(930 170)"><circle cx="130" cy="180" r="130" fill="#f7f0df" stroke="#283f62" stroke-width="10"/><g fill="none" stroke-linecap="round"><path d="M47 188c45-139 75 109 156-77M61 265c46-151 78-16 151-124M49 115c45 47 113-35 164 41M73 318c54-84 76 38 133-61" stroke="#55318d" stroke-width="13"/><path d="M57 225c74-21 75-137 153-70M63 145c53 128 96 49 142 124" stroke="#d3a52c" stroke-width="9"/></g><text x="130" y="350" text-anchor="middle" font-family="Arial, sans-serif" font-size="28" font-weight="700" fill="#283f62">multi-tissue FOD</text></g>
  <text x="600" y="610" text-anchor="middle" font-family="Arial, sans-serif" font-size="34" font-weight="700" fill="#283f62">SINGLE-SHELL DW-MRI → DEEP LEARNING → FIBER ORIENTATIONS</text>
</svg>
